<svg width="64" height="64" viewBox="0 0 64 64" fill="none" xmlns="http://www.w3.org/2000/svg">
<g clip-path="url(#clip0_56_580)">
<path d="M32 64C49.6731 64 64 49.6731 64 32C64 14.3269 49.6731 0 32 0C14.3269 0 0 14.3269 0 32C0 49.6731 14.3269 64 32 64Z" fill="#0AE15F"/>
<path d="M22 20.3334V50.3334H42.5221C46.8367 50.3334 50.3333 46.8367 50.3333 42.522V20.3334H22Z" fill="white"/>
<path d="M24.8889 21.5852H50.3332V13.6667H20.8521C16.8825 13.6667 13.6665 16.8356 13.6665 20.7471V50.3335H22.8145V38.4004H39.3272V30.4817H22.8145V23.6218C22.8145 22.4896 23.7472 21.578 24.8889 21.578V21.5852Z" fill="black"/>
</g>
<defs>
<clipPath id="clip0_56_580">
<rect width="64" height="64" fill="white"/>
</clipPath>
</defs>
</svg>
