<svg width="22" height="28" viewBox="0 0 22 28" fill="none" xmlns="http://www.w3.org/2000/svg">
<path d="M2.24832 1.00667C1.91438 1.01519 1.59689 1.159 1.36365 1.40738C1.13041 1.65576 0.999899 1.98903 1 2.336V25.6707C0.999895 26.0175 1.13031 26.3507 1.36342 26.5991C1.59652 26.8474 1.91385 26.9913 2.24767 27H19.7202C20.0597 27 20.3852 26.8599 20.6252 26.6106C20.8652 26.3613 21 26.0232 21 25.6707V7.648H15.8803C15.5463 7.63947 15.2287 7.49557 14.9954 7.24705C14.7622 6.99852 14.6317 6.66509 14.632 6.318V1L2.24832 1.00667ZM14.5742 1.00667L20.9679 7.648ZM5.76157 13.2853H16.2063ZM5.76157 21.3293H16.2063ZM5.76157 17.3073H16.2063Z" fill="#297D2E"/>
<path d="M14.5742 1.00667L20.9679 7.648M5.76157 13.2853H16.2063M5.76157 21.3293H16.2063M5.76157 17.3073H16.2063M2.24832 1.00667C1.91438 1.01519 1.59689 1.159 1.36365 1.40738C1.13041 1.65576 0.999899 1.98903 1 2.336V25.6707C0.999895 26.0175 1.13031 26.3507 1.36342 26.5991C1.59652 26.8474 1.91385 26.9913 2.24767 27H19.7202C20.0597 27 20.3852 26.8599 20.6252 26.6106C20.8652 26.3613 21 26.0232 21 25.6707V7.648H15.8803C15.5463 7.63947 15.2287 7.49557 14.9954 7.24705C14.7622 6.99852 14.6317 6.66509 14.632 6.318V1L2.24832 1.00667Z" stroke="black" stroke-linecap="round" stroke-linejoin="round"/>
</svg>
